# xmcd
#
# Track frame offsets:
# 187
# 13000
# 29222
# 43047
# 57917
# 74082
# 102765
# 119270
# 132910
# 146790
# 153462
# 170825
# 183395
#
# Disc length: 2582 seconds
#
#
# Revision: 4
# Processed by: cddbd v1.5.1PL0 Copyright (c) Steve Scherf et al.
# Submitted via: FreeRIP 2.51 
#
DISCID=c60a140d
DTITLE=Muddy Waters and Howlin' Wolf - Muddy and The Wolf
DYEAR=1973
DGENRE=Blues
TTITLE0=Muddy Waters-All Aboard
TTITLE1=Muddy Waters-Blow Wind Blow
TTITLE2=Muddy Waters-Can't Lose What You Ain't Never Had
TTITLE3=Muddy Waters-Walkin' Thru The Park
TTITLE4=Muddy Waters-I'm Ready
TTITLE5=Muddy Waters-Long Distance Call
TTITLE6=Howlin' Wolf-Rockin' Daddy
TTITLE7=Howlin' Wolf-What A Woman!
TTITLE8=Howlin' Wolf-Who's Been Talking?
TTITLE9=Howlin' Wolf-Red Rooster (rehearsal)
TTITLE10=Howlin' Wolf-Red Rooster
TTITLE11=Howlin' Wolf-Highway 49
TTITLE12=Howlin' Wolf-Do The Do
EXTD=Famous artists play backup for both men
EXTT0=
EXTT1=
EXTT2=
EXTT3=
EXTT4=
EXTT5=
EXTT6=
EXTT7=
EXTT8=
EXTT9=
EXTT10=
EXTT11=
EXTT12=
PLAYORDER=
